<svg width="358.401" height="73.695" viewBox="0 0 358.401 73.695" xmlns="http://www.w3.org/2000/svg"><g id="svgGroup" stroke-linecap="round" fill-rule="evenodd" font-size="9pt" stroke="#000" stroke-width="0.25mm" fill="black" style="stroke:#000;stroke-width:0.25mm;fill:black"><path d="M 49.854 24.219 L 50.391 21.484 Q 50.568 19.274 50.584 18.945 A 1.111 1.111 0 0 0 50.586 18.896 A 11.746 11.746 0 0 0 50.212 15.851 A 8.536 8.536 0 0 0 47.925 11.89 A 8.598 8.598 0 0 0 44.259 9.795 Q 42.941 9.407 41.364 9.31 A 17.577 17.577 0 0 0 40.283 9.277 L 31.153 9.277 A 3.046 3.046 0 0 0 29.102 10.034 A 3.662 3.662 0 0 0 28.364 10.886 A 3.156 3.156 0 0 0 27.979 11.816 L 23.486 36.914 L 27.686 36.914 A 29.255 29.255 0 0 0 30.066 36.824 Q 32.504 36.624 34.041 35.981 A 5.969 5.969 0 0 0 35.01 35.474 Q 36.866 34.257 37.642 31.489 A 12.722 12.722 0 0 0 37.891 30.42 L 38.281 28.32 A 1.727 1.727 0 0 1 38.393 27.896 Q 38.621 27.352 39.225 27.3 A 1.534 1.534 0 0 1 39.356 27.295 A 1.117 1.117 0 0 1 39.777 27.372 Q 40.029 27.473 40.21 27.71 Q 40.528 28.125 40.479 28.711 L 36.963 48.779 A 1.859 1.859 0 0 1 36.846 49.244 Q 36.629 49.774 36.078 49.877 A 1.555 1.555 0 0 1 35.791 49.902 A 1.018 1.018 0 0 1 35.109 49.639 A 1.505 1.505 0 0 1 34.937 49.463 A 1.296 1.296 0 0 1 34.729 49.124 Q 34.608 48.828 34.667 48.493 A 1.361 1.361 0 0 1 34.668 48.486 L 34.961 46.777 A 54.542 54.542 0 0 0 35.01 46.32 A 68.545 68.545 0 0 0 35.059 45.825 Q 35.108 45.313 35.132 45.044 A 6.998 6.998 0 0 0 35.147 44.853 Q 35.153 44.759 35.155 44.676 A 3.555 3.555 0 0 0 35.156 44.58 A 6.598 6.598 0 0 0 34.985 43.023 A 4.069 4.069 0 0 0 33.374 40.576 Q 31.865 39.501 28.552 39.336 A 25.362 25.362 0 0 0 27.295 39.307 L 22.998 39.307 L 17.969 68.115 Q 17.728 69.126 18.389 69.852 A 2.266 2.266 0 0 0 18.408 69.873 A 2.261 2.261 0 0 0 19.733 70.564 A 3.252 3.252 0 0 0 20.264 70.605 L 24.854 70.605 A 1.378 1.378 0 0 1 25.272 70.666 A 1.123 1.123 0 0 1 25.733 70.947 A 1.128 1.128 0 0 1 26.074 71.762 A 1.383 1.383 0 0 1 26.074 71.777 A 1.14 1.14 0 0 1 25.999 72.198 A 1.042 1.042 0 0 1 25.733 72.583 A 1.171 1.171 0 0 1 25.095 72.883 A 1.609 1.609 0 0 1 24.854 72.9 L 1.074 72.9 A 1.351 1.351 0 0 1 0.63 72.833 Q 0.026 72.623 0.001 71.755 A 2.646 2.646 0 0 1 0 71.68 A 1.546 1.546 0 0 1 0.053 71.255 Q 0.19 70.778 0.677 70.651 A 1.583 1.583 0 0 1 1.074 70.605 L 3.369 70.605 A 3.663 3.663 0 0 0 4.61 70.401 A 3.291 3.291 0 0 0 5.493 69.922 Q 6.397 69.238 6.592 68.115 L 16.455 11.816 A 2.356 2.356 0 0 0 16.513 11.455 Q 16.573 10.691 16.066 10.091 A 2.341 2.341 0 0 0 16.016 10.034 A 2.253 2.253 0 0 0 14.616 9.309 A 3.213 3.213 0 0 0 14.16 9.277 L 11.963 9.277 Q 11.621 9.277 11.255 8.911 A 1.759 1.759 0 0 1 11.074 8.701 Q 10.889 8.446 10.889 8.203 Q 10.889 6.982 11.963 6.982 L 55.176 6.982 L 52.197 24.512 A 1.346 1.346 0 0 1 52.054 24.962 Q 51.766 25.488 50.977 25.488 A 1.367 1.367 0 0 1 50.605 25.44 A 1.025 1.025 0 0 1 50.122 25.146 A 1.011 1.011 0 0 1 49.869 24.626 Q 49.837 24.448 49.852 24.238 A 1.985 1.985 0 0 1 49.854 24.219 Z M 216.162 38.281 L 218.067 27.783 L 228.174 27.783 L 221.24 66.602 L 221.143 67.578 Q 221.143 69.326 222.445 69.548 A 2.421 2.421 0 0 0 222.852 69.58 Q 224.665 69.58 226.567 67.3 A 13.253 13.253 0 0 0 226.758 67.065 A 12.662 12.662 0 0 0 228.541 63.987 Q 229.115 62.594 229.47 60.941 A 21.592 21.592 0 0 0 229.541 60.596 Q 229.696 59.978 230.027 59.686 A 1.071 1.071 0 0 1 230.762 59.424 Q 231.832 59.424 231.836 60.588 A 2.577 2.577 0 0 1 231.836 60.596 A 5.001 5.001 0 0 1 231.839 60.757 Q 231.839 61.815 231.406 63.192 A 15.597 15.597 0 0 1 231.006 64.307 A 20.516 20.516 0 0 1 229.527 67.259 A 24.883 24.883 0 0 1 228.589 68.701 A 12.784 12.784 0 0 1 224.836 72.224 A 14.69 14.69 0 0 1 224.61 72.363 Q 222.168 73.828 219.483 73.682 A 11.471 11.471 0 0 1 217.172 73.463 Q 215.781 73.177 214.716 72.516 A 6.211 6.211 0 0 1 213.623 71.655 Q 211.572 69.629 211.572 65.82 A 3.831 3.831 0 0 1 211.576 65.664 Q 211.582 65.524 211.597 65.356 A 90.579 90.579 0 0 1 211.611 65.207 Q 211.626 65.037 211.649 64.802 A 384.979 384.979 0 0 1 211.67 64.575 A 68.545 68.545 0 0 1 211.719 64.081 A 54.542 54.542 0 0 1 211.768 63.623 A 24.941 24.941 0 0 1 208.2 68.132 A 20.467 20.467 0 0 1 204.468 71.069 A 17.502 17.502 0 0 1 195.166 73.682 A 17.083 17.083 0 0 1 189.662 72.83 A 14.423 14.423 0 0 1 183.643 68.896 A 17.765 17.765 0 0 1 179.558 59.963 A 24.333 24.333 0 0 1 179.248 56.006 A 32.816 32.816 0 0 1 179.245 55.565 A 31.908 31.908 0 0 1 182.276 41.992 A 28.61 28.61 0 0 1 189.319 32.43 A 27.805 27.805 0 0 1 191.04 31.03 Q 196.68 26.807 203.174 27.002 A 15.142 15.142 0 0 1 207.07 27.479 A 11.298 11.298 0 0 1 211.792 30.005 A 13.16 13.16 0 0 1 215.226 35.03 A 18.203 18.203 0 0 1 216.162 38.281 Z M 342.725 38.281 L 344.629 27.783 L 354.736 27.783 L 347.803 66.602 L 347.705 67.578 Q 347.705 69.326 349.008 69.548 A 2.421 2.421 0 0 0 349.414 69.58 Q 351.227 69.58 353.129 67.3 A 13.253 13.253 0 0 0 353.32 67.065 A 12.662 12.662 0 0 0 355.103 63.987 Q 355.678 62.594 356.033 60.941 A 21.592 21.592 0 0 0 356.104 60.596 Q 356.258 59.978 356.589 59.686 A 1.071 1.071 0 0 1 357.324 59.424 Q 358.395 59.424 358.399 60.588 A 2.577 2.577 0 0 1 358.399 60.596 A 5.001 5.001 0 0 1 358.401 60.757 Q 358.401 61.815 357.969 63.192 A 15.597 15.597 0 0 1 357.569 64.307 A 20.516 20.516 0 0 1 356.09 67.259 A 24.883 24.883 0 0 1 355.152 68.701 A 12.784 12.784 0 0 1 351.399 72.224 A 14.69 14.69 0 0 1 351.172 72.363 Q 348.731 73.828 346.045 73.682 A 11.471 11.471 0 0 1 343.735 73.463 Q 342.344 73.177 341.279 72.516 A 6.211 6.211 0 0 1 340.186 71.655 Q 338.135 69.629 338.135 65.82 A 3.831 3.831 0 0 1 338.138 65.664 Q 338.144 65.524 338.159 65.356 A 90.579 90.579 0 0 1 338.173 65.207 Q 338.189 65.037 338.211 64.802 A 384.979 384.979 0 0 1 338.233 64.575 A 68.545 68.545 0 0 1 338.281 64.081 A 54.542 54.542 0 0 1 338.33 63.623 A 24.941 24.941 0 0 1 334.762 68.132 A 20.467 20.467 0 0 1 331.03 71.069 A 17.502 17.502 0 0 1 321.729 73.682 A 17.083 17.083 0 0 1 316.224 72.83 A 14.423 14.423 0 0 1 310.205 68.896 A 17.765 17.765 0 0 1 306.121 59.963 A 24.333 24.333 0 0 1 305.811 56.006 A 32.816 32.816 0 0 1 305.808 55.565 A 31.908 31.908 0 0 1 308.838 41.992 A 28.61 28.61 0 0 1 315.881 32.43 A 27.805 27.805 0 0 1 317.603 31.03 Q 323.242 26.807 329.736 27.002 A 15.142 15.142 0 0 1 333.633 27.479 A 11.298 11.298 0 0 1 338.355 30.005 A 13.16 13.16 0 0 1 341.788 35.03 A 18.203 18.203 0 0 1 342.725 38.281 Z M 149.903 57.324 L 147.217 72.9 L 137.11 72.9 L 144.092 32.91 A 3.057 3.057 0 0 0 144.149 32.506 Q 144.215 31.592 143.653 30.908 A 2.23 2.23 0 0 0 142.017 30.086 A 3.121 3.121 0 0 0 141.797 30.078 L 139.697 30.078 Q 138.627 30.078 138.623 28.914 A 2.577 2.577 0 0 1 138.623 28.906 Q 138.623 27.783 139.697 27.783 L 155.127 27.783 L 152.93 40.088 A 36.362 36.362 0 0 1 155.617 34.723 Q 160.342 27.1 167.188 27.1 A 10.576 10.576 0 0 1 170.323 27.545 A 8.593 8.593 0 0 1 173.657 29.468 A 7.822 7.822 0 0 1 176.089 34.139 A 11.194 11.194 0 0 1 176.221 35.889 A 11.196 11.196 0 0 1 175.416 40.171 A 10.549 10.549 0 0 1 173.877 42.773 Q 171.533 45.703 168.213 45.703 A 5.937 5.937 0 0 1 166.819 45.548 A 4.084 4.084 0 0 1 164.942 44.556 A 3.78 3.78 0 0 1 163.817 42.465 A 5.53 5.53 0 0 1 163.721 41.406 A 6.389 6.389 0 0 1 163.799 40.378 Q 163.887 39.838 164.075 39.398 A 3.154 3.154 0 0 1 164.38 38.843 Q 165.039 37.891 166.699 36.523 A 19.681 19.681 0 0 0 167.379 35.972 Q 168.169 35.299 168.555 34.79 A 2.584 2.584 0 0 0 169.026 33.718 A 3.623 3.623 0 0 0 169.092 33.008 A 2.738 2.738 0 0 0 168.941 32.081 A 2.349 2.349 0 0 0 168.213 31.055 Q 167.334 30.322 165.82 30.322 A 7.816 7.816 0 0 0 161.049 32.019 Q 158.644 33.826 156.528 37.558 A 31.168 31.168 0 0 0 156.397 37.793 A 47.466 47.466 0 0 0 153.276 44.668 Q 152.001 48.139 151.002 52.215 A 95.585 95.585 0 0 0 149.903 57.324 Z M 238.867 60.205 L 244.141 30.078 L 239.258 30.078 Q 238.362 30.078 238.181 29.333 A 1.809 1.809 0 0 1 238.135 28.906 Q 238.135 28.418 238.501 28.101 A 1.492 1.492 0 0 1 238.776 27.909 A 1.015 1.015 0 0 1 239.258 27.783 L 240.235 27.783 Q 245.41 27.783 249.487 24.121 A 15.869 15.869 0 0 0 253.769 17.687 A 21.658 21.658 0 0 0 254.736 14.111 Q 254.885 13.442 255.223 13.113 A 1.142 1.142 0 0 1 256.055 12.793 A 2.29 2.29 0 0 1 256.424 12.82 Q 257.286 12.961 257.052 13.844 A 2.048 2.048 0 0 1 257.031 13.916 L 254.639 27.783 L 267.529 27.783 A 1.617 1.617 0 0 1 267.974 27.839 Q 268.472 27.982 268.605 28.49 A 1.655 1.655 0 0 1 268.653 28.906 A 1.272 1.272 0 0 1 268.597 29.292 A 1.016 1.016 0 0 1 268.286 29.761 A 1.269 1.269 0 0 1 267.697 30.044 A 1.814 1.814 0 0 1 267.334 30.078 L 254.248 30.078 L 248.731 60.986 Q 248.452 63.217 248.438 63.855 A 2.887 2.887 0 0 0 248.438 63.916 A 9.152 9.152 0 0 0 248.697 66.2 Q 249.456 69.135 252.433 69.693 A 8.267 8.267 0 0 0 253.955 69.824 Q 256.592 69.824 258.643 68.481 Q 260.133 67.506 261.674 65.641 A 26.208 26.208 0 0 0 262.842 64.111 A 1.29 1.29 0 0 1 262.944 63.865 Q 263.065 63.634 263.298 63.367 A 4.362 4.362 0 0 1 263.33 63.33 Q 263.611 63.015 263.916 62.926 A 0.869 0.869 0 0 1 264.16 62.891 A 1.196 1.196 0 0 1 264.513 62.938 Q 264.902 63.058 265.003 63.481 A 1.448 1.448 0 0 1 265.039 63.818 A 1.325 1.325 0 0 1 264.959 64.233 Q 264.747 64.86 263.977 65.906 A 19.272 19.272 0 0 1 263.672 66.309 A 20.23 20.23 0 0 1 259.696 70.506 A 14.862 14.862 0 0 1 250.342 73.682 A 20.508 20.508 0 0 1 246.98 73.424 Q 245.186 73.125 243.754 72.48 A 9.298 9.298 0 0 1 241.48 71.045 Q 238.428 68.408 238.428 63.379 Q 238.428 61.865 238.867 60.205 Z M 272.852 60.205 L 278.125 30.078 L 273.242 30.078 Q 272.347 30.078 272.165 29.333 A 1.809 1.809 0 0 1 272.119 28.906 Q 272.119 28.418 272.486 28.101 A 1.492 1.492 0 0 1 272.761 27.909 A 1.015 1.015 0 0 1 273.242 27.783 L 274.219 27.783 Q 279.395 27.783 283.472 24.121 A 15.869 15.869 0 0 0 287.753 17.687 A 21.658 21.658 0 0 0 288.721 14.111 Q 288.87 13.442 289.207 13.113 A 1.142 1.142 0 0 1 290.039 12.793 A 2.29 2.29 0 0 1 290.408 12.82 Q 291.27 12.961 291.036 13.844 A 2.048 2.048 0 0 1 291.016 13.916 L 288.623 27.783 L 301.514 27.783 A 1.617 1.617 0 0 1 301.958 27.839 Q 302.457 27.982 302.589 28.49 A 1.655 1.655 0 0 1 302.637 28.906 A 1.272 1.272 0 0 1 302.581 29.292 A 1.016 1.016 0 0 1 302.271 29.761 A 1.269 1.269 0 0 1 301.681 30.044 A 1.814 1.814 0 0 1 301.319 30.078 L 288.233 30.078 L 282.715 60.986 Q 282.436 63.217 282.423 63.855 A 2.887 2.887 0 0 0 282.422 63.916 A 9.152 9.152 0 0 0 282.681 66.2 Q 283.44 69.135 286.418 69.693 A 8.267 8.267 0 0 0 287.94 69.824 Q 290.576 69.824 292.627 68.481 Q 294.117 67.506 295.659 65.641 A 26.208 26.208 0 0 0 296.826 64.111 A 1.29 1.29 0 0 1 296.928 63.865 Q 297.05 63.634 297.282 63.367 A 4.362 4.362 0 0 1 297.315 63.33 Q 297.595 63.015 297.901 62.926 A 0.869 0.869 0 0 1 298.145 62.891 A 1.196 1.196 0 0 1 298.498 62.938 Q 298.886 63.058 298.988 63.481 A 1.448 1.448 0 0 1 299.024 63.818 A 1.325 1.325 0 0 1 298.943 64.233 Q 298.732 64.86 297.962 65.906 A 19.272 19.272 0 0 1 297.656 66.309 A 20.23 20.23 0 0 1 293.68 70.506 A 14.862 14.862 0 0 1 284.326 73.682 A 20.508 20.508 0 0 1 280.964 73.424 Q 279.17 73.125 277.739 72.48 A 9.298 9.298 0 0 1 275.464 71.045 Q 272.412 68.408 272.412 63.379 Q 272.412 61.865 272.852 60.205 Z M 58.057 63.184 L 68.262 5.078 A 2.884 2.884 0 0 0 68.321 4.671 Q 68.328 4.581 68.328 4.492 A 2.142 2.142 0 0 0 67.847 3.125 A 2.144 2.144 0 0 0 66.414 2.325 A 3.161 3.161 0 0 0 65.967 2.295 L 63.867 2.295 A 1.378 1.378 0 0 1 63.449 2.234 A 1.123 1.123 0 0 1 62.988 1.953 A 1.128 1.128 0 0 1 62.647 1.138 A 1.383 1.383 0 0 1 62.647 1.123 A 1.14 1.14 0 0 1 62.722 0.703 A 1.042 1.042 0 0 1 62.988 0.317 A 1.171 1.171 0 0 1 63.626 0.017 A 1.609 1.609 0 0 1 63.867 0 L 79.248 0 L 67.432 66.602 A 1.178 1.178 0 0 0 67.391 66.774 Q 67.334 67.112 67.334 67.822 Q 67.334 69.21 68.399 69.502 A 2.437 2.437 0 0 0 69.043 69.58 A 3.48 3.48 0 0 0 70.75 69.105 Q 71.85 68.492 72.949 67.09 Q 74.719 64.833 75.567 61.333 A 22.767 22.767 0 0 0 75.733 60.596 Q 76.019 59.452 77.002 59.425 A 1.749 1.749 0 0 1 77.051 59.424 Q 78.028 59.424 78.028 60.596 Q 78.076 62.109 77.173 64.307 Q 76.27 66.504 74.732 68.701 A 12.784 12.784 0 0 1 70.979 72.224 A 14.69 14.69 0 0 1 70.752 72.363 Q 68.311 73.828 65.625 73.682 Q 62.738 73.682 60.874 72.503 A 6.116 6.116 0 0 1 59.79 71.631 A 6.745 6.745 0 0 1 58.061 68.486 Q 57.792 67.429 57.766 66.179 A 12.927 12.927 0 0 1 57.764 65.918 A 12.571 12.571 0 0 1 57.857 64.428 A 16.072 16.072 0 0 1 58.057 63.184 Z M 84.131 56.299 Q 84.033 48.389 87.329 41.65 A 26.629 26.629 0 0 1 96.753 30.884 A 23.455 23.455 0 0 1 109.92 26.997 A 27.355 27.355 0 0 1 110.449 27.002 A 27.705 27.705 0 0 1 115.725 27.472 Q 118.749 28.06 121.105 29.379 A 14.286 14.286 0 0 1 123.853 31.372 A 14.089 14.089 0 0 1 127.874 38.245 Q 128.478 40.511 128.554 43.213 A 27.947 27.947 0 0 1 128.565 43.994 A 37.581 37.581 0 0 1 127.496 53.11 A 31.859 31.859 0 0 1 125.366 59.082 Q 122.168 65.82 116.113 69.751 A 24.493 24.493 0 0 1 103.934 73.635 A 29.963 29.963 0 0 1 102.246 73.682 Q 93.506 73.682 88.819 69.165 A 14.646 14.646 0 0 1 84.846 62.237 Q 84.22 59.895 84.142 57.105 A 28.765 28.765 0 0 1 84.131 56.299 Z M 118.523 42.184 A 27.031 27.031 0 0 0 118.555 40.918 A 23.809 23.809 0 0 0 118.218 36.714 Q 116.9 29.41 110.436 29.205 A 11.913 11.913 0 0 0 110.059 29.199 A 11.071 11.071 0 0 0 100.932 34.069 Q 96.948 39.334 95.02 50.293 Q 94.141 55.42 94.141 59.619 A 25.115 25.115 0 0 0 94.457 63.801 Q 95.718 71.223 101.993 71.475 A 11.151 11.151 0 0 0 102.442 71.484 Q 112.645 71.484 116.708 54.292 A 72.378 72.378 0 0 0 117.529 50.293 Q 118.375 45.343 118.523 42.184 Z M 214.551 44.385 A 30.016 30.016 0 0 0 214.291 40.3 Q 214.008 38.244 213.417 36.549 A 13.382 13.382 0 0 0 212.134 33.838 A 8.34 8.34 0 0 0 209.712 31.278 Q 208.073 30.183 205.901 30.012 A 10.472 10.472 0 0 0 205.078 29.98 A 9.628 9.628 0 0 0 197.727 33.214 A 13.073 13.073 0 0 0 196.9 34.204 Q 193.842 38.243 191.833 46.366 A 72.218 72.218 0 0 0 191.651 47.119 A 82.825 82.825 0 0 0 190.643 52.164 Q 190.248 54.547 190.076 56.639 A 37.515 37.515 0 0 0 189.942 59.717 A 22.472 22.472 0 0 0 190.256 63.658 Q 191.517 70.703 197.852 70.703 A 9.387 9.387 0 0 0 198.264 70.712 Q 202.328 70.712 205.979 67.164 A 18.748 18.748 0 0 0 206.25 66.895 A 25.192 25.192 0 0 0 210.684 60.714 A 32.219 32.219 0 0 0 212.403 56.738 Q 214.552 50.72 214.552 44.654 A 34.235 34.235 0 0 0 214.551 44.385 Z M 341.113 44.385 A 30.016 30.016 0 0 0 340.853 40.3 Q 340.57 38.244 339.979 36.549 A 13.382 13.382 0 0 0 338.696 33.838 A 8.34 8.34 0 0 0 336.275 31.278 Q 334.635 30.183 332.463 30.012 A 10.472 10.472 0 0 0 331.641 29.98 A 9.628 9.628 0 0 0 324.289 33.214 A 13.073 13.073 0 0 0 323.462 34.204 Q 320.404 38.243 318.395 46.366 A 72.218 72.218 0 0 0 318.213 47.119 A 82.825 82.825 0 0 0 317.205 52.164 Q 316.811 54.547 316.638 56.639 A 37.515 37.515 0 0 0 316.504 59.717 A 22.472 22.472 0 0 0 316.818 63.658 Q 318.08 70.703 324.414 70.703 A 9.387 9.387 0 0 0 324.827 70.712 Q 328.89 70.712 332.541 67.164 A 18.748 18.748 0 0 0 332.813 66.895 A 25.192 25.192 0 0 0 337.247 60.714 A 32.219 32.219 0 0 0 338.965 56.738 Q 341.115 50.72 341.115 44.654 A 34.235 34.235 0 0 0 341.113 44.385 Z" vector-effect="non-scaling-stroke"/></g></svg>