<svg width="215.041" height="44.217" viewBox="0 0 215.041 44.217" xmlns="http://www.w3.org/2000/svg"><g id="svgGroup" stroke-linecap="round" fill-rule="evenodd" font-size="9pt" stroke="#000" stroke-width="0.25mm" fill="black" style="stroke:#000;stroke-width:0.25mm;fill:black"><path d="M 29.912 14.531 L 30.234 12.891 Q 30.352 11.426 30.352 11.338 A 7.048 7.048 0 0 0 30.127 9.511 A 5.122 5.122 0 0 0 28.755 7.134 A 5.159 5.159 0 0 0 26.555 5.877 Q 25.764 5.644 24.818 5.586 A 10.546 10.546 0 0 0 24.17 5.566 L 18.692 5.566 A 1.827 1.827 0 0 0 17.461 6.021 A 2.197 2.197 0 0 0 17.018 6.532 A 1.894 1.894 0 0 0 16.787 7.09 L 14.092 22.148 L 16.611 22.148 A 17.553 17.553 0 0 0 18.04 22.094 Q 20.017 21.932 21.006 21.284 A 3.429 3.429 0 0 0 22.124 20.046 Q 22.536 19.302 22.734 18.252 L 22.969 16.992 A 1.036 1.036 0 0 1 23.036 16.738 Q 23.187 16.377 23.613 16.377 A 0.67 0.67 0 0 1 23.866 16.423 Q 24.017 16.484 24.126 16.626 A 0.803 0.803 0 0 1 24.29 17.087 Q 24.291 17.111 24.291 17.135 A 1.107 1.107 0 0 1 24.287 17.227 L 22.178 29.268 Q 22.103 29.841 21.647 29.926 A 0.933 0.933 0 0 1 21.475 29.941 A 0.611 0.611 0 0 1 21.065 29.784 A 0.903 0.903 0 0 1 20.962 29.678 Q 20.744 29.416 20.8 29.096 A 0.819 0.819 0 0 1 20.801 29.092 L 20.977 28.066 A 32.726 32.726 0 0 0 21.006 27.792 A 41.127 41.127 0 0 0 21.035 27.495 A 228.164 228.164 0 0 0 21.049 27.35 Q 21.062 27.211 21.072 27.11 A 53.256 53.256 0 0 0 21.079 27.026 Q 21.09 26.903 21.093 26.805 A 2.134 2.134 0 0 0 21.094 26.748 A 3.959 3.959 0 0 0 20.991 25.814 A 2.441 2.441 0 0 0 20.025 24.346 Q 18.955 23.584 16.377 23.584 L 13.799 23.584 L 10.781 40.869 A 1.421 1.421 0 0 0 10.747 41.076 Q 10.706 41.552 11.033 41.911 A 1.357 1.357 0 0 0 11.045 41.924 A 1.356 1.356 0 0 0 11.84 42.338 A 1.951 1.951 0 0 0 12.158 42.363 L 14.912 42.363 A 0.827 0.827 0 0 1 15.163 42.4 A 0.674 0.674 0 0 1 15.44 42.568 A 0.677 0.677 0 0 1 15.645 43.057 A 0.832 0.832 0 0 1 15.645 43.066 A 0.684 0.684 0 0 1 15.6 43.319 A 0.625 0.625 0 0 1 15.44 43.55 A 0.703 0.703 0 0 1 15.057 43.73 A 0.966 0.966 0 0 1 14.912 43.74 L 0.645 43.74 A 0.811 0.811 0 0 1 0.378 43.7 Q 0.016 43.574 0.001 43.053 A 1.588 1.588 0 0 1 0 43.008 A 0.928 0.928 0 0 1 0.032 42.753 Q 0.144 42.363 0.645 42.363 L 2.022 42.363 A 2.198 2.198 0 0 0 2.766 42.241 A 1.975 1.975 0 0 0 3.296 41.953 A 1.672 1.672 0 0 0 3.955 40.869 L 9.873 7.09 A 1.414 1.414 0 0 0 9.908 6.873 Q 9.946 6.393 9.609 6.021 A 1.352 1.352 0 0 0 8.77 5.585 A 1.928 1.928 0 0 0 8.496 5.566 L 7.178 5.566 A 0.44 0.44 0 0 1 6.992 5.523 Q 6.875 5.469 6.753 5.347 Q 6.618 5.211 6.566 5.081 A 0.427 0.427 0 0 1 6.533 4.922 Q 6.533 4.189 7.178 4.189 L 33.106 4.189 L 31.318 14.707 A 0.807 0.807 0 0 1 31.232 14.977 Q 31.059 15.293 30.586 15.293 A 0.82 0.82 0 0 1 30.363 15.264 A 0.615 0.615 0 0 1 30.073 15.088 Q 29.886 14.886 29.911 14.543 A 1.195 1.195 0 0 1 29.912 14.531 Z M 129.697 22.969 L 130.84 16.67 L 136.904 16.67 L 132.744 39.961 L 132.686 40.547 A 2.049 2.049 0 0 0 132.731 40.998 Q 132.901 41.748 133.711 41.748 A 2.004 2.004 0 0 0 134.649 41.499 Q 135.342 41.135 136.055 40.239 A 7.597 7.597 0 0 0 137.124 38.392 Q 137.505 37.47 137.725 36.357 A 1.461 1.461 0 0 1 137.828 36.066 Q 138.031 35.654 138.457 35.654 A 0.844 0.844 0 0 1 138.722 35.692 Q 139.1 35.817 139.102 36.353 A 1.514 1.514 0 0 1 139.102 36.357 A 3 3 0 0 1 139.103 36.454 Q 139.103 37.335 138.604 38.584 A 12.31 12.31 0 0 1 137.716 40.356 A 14.93 14.93 0 0 1 137.153 41.221 A 7.67 7.67 0 0 1 134.902 43.335 A 8.816 8.816 0 0 1 134.766 43.418 Q 133.434 44.217 131.981 44.217 A 5.356 5.356 0 0 1 131.69 44.209 A 6.882 6.882 0 0 1 130.303 44.078 Q 129.001 43.81 128.174 42.993 Q 127.051 41.883 126.953 39.883 A 7.985 7.985 0 0 1 126.943 39.492 A 2.298 2.298 0 0 1 126.946 39.398 Q 126.949 39.315 126.958 39.214 A 54.343 54.343 0 0 1 126.966 39.124 Q 126.98 38.976 127.002 38.745 A 41.127 41.127 0 0 1 127.031 38.448 A 32.726 32.726 0 0 1 127.061 38.174 A 14.965 14.965 0 0 1 124.92 40.879 A 12.28 12.28 0 0 1 122.681 42.642 A 10.501 10.501 0 0 1 117.1 44.209 A 10.25 10.25 0 0 1 113.797 43.698 A 8.654 8.654 0 0 1 110.186 41.338 A 10.659 10.659 0 0 1 107.735 35.978 A 14.6 14.6 0 0 1 107.549 33.604 A 19.689 19.689 0 0 1 107.547 33.339 A 19.145 19.145 0 0 1 109.365 25.195 A 17.166 17.166 0 0 1 113.591 19.458 A 16.683 16.683 0 0 1 114.624 18.618 A 12.343 12.343 0 0 1 118.138 16.746 Q 119.796 16.196 121.561 16.196 A 11.424 11.424 0 0 1 121.904 16.201 A 9.085 9.085 0 0 1 124.242 16.487 A 6.779 6.779 0 0 1 127.075 18.003 A 7.896 7.896 0 0 1 129.135 21.018 A 10.922 10.922 0 0 1 129.697 22.969 Z M 205.635 22.969 L 206.777 16.67 L 212.842 16.67 L 208.682 39.961 L 208.623 40.547 A 2.049 2.049 0 0 0 208.668 40.998 Q 208.838 41.748 209.649 41.748 A 2.004 2.004 0 0 0 210.587 41.499 Q 211.279 41.135 211.992 40.239 A 7.597 7.597 0 0 0 213.062 38.392 Q 213.442 37.47 213.662 36.357 A 1.461 1.461 0 0 1 213.766 36.066 Q 213.968 35.654 214.395 35.654 A 0.844 0.844 0 0 1 214.659 35.692 Q 215.037 35.817 215.039 36.353 A 1.514 1.514 0 0 1 215.039 36.357 A 3 3 0 0 1 215.041 36.454 Q 215.041 37.335 214.541 38.584 A 12.31 12.31 0 0 1 213.654 40.356 A 14.93 14.93 0 0 1 213.091 41.221 A 7.67 7.67 0 0 1 210.839 43.335 A 8.816 8.816 0 0 1 210.703 43.418 Q 209.372 44.217 207.919 44.217 A 5.356 5.356 0 0 1 207.627 44.209 A 6.882 6.882 0 0 1 206.241 44.078 Q 204.938 43.81 204.111 42.993 Q 202.988 41.883 202.89 39.883 A 7.985 7.985 0 0 1 202.881 39.492 A 2.298 2.298 0 0 1 202.883 39.398 Q 202.886 39.315 202.896 39.214 A 54.343 54.343 0 0 1 202.904 39.124 Q 202.918 38.976 202.94 38.745 A 41.127 41.127 0 0 1 202.969 38.448 A 32.726 32.726 0 0 1 202.998 38.174 A 14.965 14.965 0 0 1 200.857 40.879 A 12.28 12.28 0 0 1 198.618 42.642 A 10.501 10.501 0 0 1 193.037 44.209 A 10.25 10.25 0 0 1 189.734 43.698 A 8.654 8.654 0 0 1 186.123 41.338 A 10.659 10.659 0 0 1 183.672 35.978 A 14.6 14.6 0 0 1 183.486 33.604 A 19.689 19.689 0 0 1 183.485 33.339 A 19.145 19.145 0 0 1 185.303 25.195 A 17.166 17.166 0 0 1 189.529 19.458 A 16.683 16.683 0 0 1 190.562 18.618 A 12.343 12.343 0 0 1 194.076 16.746 Q 195.734 16.196 197.498 16.196 A 11.424 11.424 0 0 1 197.842 16.201 A 9.085 9.085 0 0 1 200.18 16.487 A 6.779 6.779 0 0 1 203.013 18.003 A 7.896 7.896 0 0 1 205.073 21.018 A 10.922 10.922 0 0 1 205.635 22.969 Z M 89.942 34.395 L 88.33 43.74 L 82.266 43.74 L 86.455 19.746 A 1.835 1.835 0 0 0 86.49 19.504 Q 86.494 19.446 86.494 19.39 A 1.291 1.291 0 0 0 86.192 18.545 Q 85.781 18.047 85.078 18.047 L 83.818 18.047 A 0.844 0.844 0 0 1 83.554 18.009 Q 83.176 17.884 83.174 17.349 A 1.514 1.514 0 0 1 83.174 17.344 A 1.017 1.017 0 0 1 83.205 17.081 Q 83.315 16.67 83.818 16.67 L 93.076 16.67 L 91.758 24.053 A 21.817 21.817 0 0 1 93.37 20.834 Q 96.205 16.26 100.313 16.26 A 6.346 6.346 0 0 1 102.194 16.527 A 5.156 5.156 0 0 1 104.194 17.681 A 4.693 4.693 0 0 1 105.654 20.483 A 6.717 6.717 0 0 1 105.733 21.533 A 6.718 6.718 0 0 1 105.25 24.103 A 6.33 6.33 0 0 1 104.326 25.664 A 5.206 5.206 0 0 1 103.215 26.718 A 3.951 3.951 0 0 1 100.928 27.422 A 3.562 3.562 0 0 1 100.091 27.329 A 2.451 2.451 0 0 1 98.965 26.733 A 2.268 2.268 0 0 1 98.29 25.479 A 3.318 3.318 0 0 1 98.233 24.844 A 3.833 3.833 0 0 1 98.279 24.227 Q 98.332 23.903 98.445 23.639 A 1.892 1.892 0 0 1 98.628 23.306 Q 99.024 22.734 100.02 21.914 A 11.809 11.809 0 0 0 100.427 21.583 Q 100.813 21.254 101.039 20.991 A 2.582 2.582 0 0 0 101.133 20.874 A 1.55 1.55 0 0 0 101.415 20.231 A 2.174 2.174 0 0 0 101.455 19.805 A 1.643 1.643 0 0 0 101.365 19.248 A 1.409 1.409 0 0 0 100.928 18.633 A 1.791 1.791 0 0 0 100.249 18.287 Q 99.911 18.193 99.492 18.193 A 4.69 4.69 0 0 0 96.63 19.211 Q 95.187 20.296 93.917 22.535 A 18.698 18.698 0 0 0 93.838 22.676 Q 91.289 27.217 89.942 34.395 Z M 143.32 36.123 L 146.484 18.047 L 143.555 18.047 A 0.927 0.927 0 0 1 143.284 18.011 Q 142.881 17.888 142.881 17.344 A 0.636 0.636 0 0 1 142.939 17.069 A 0.633 0.633 0 0 1 143.101 16.86 A 0.895 0.895 0 0 1 143.266 16.745 A 0.609 0.609 0 0 1 143.555 16.67 L 144.141 16.67 A 8.043 8.043 0 0 0 149.539 14.608 A 10.276 10.276 0 0 0 149.692 14.473 A 9.522 9.522 0 0 0 152.261 10.612 A 12.995 12.995 0 0 0 152.842 8.467 Q 152.931 8.065 153.134 7.868 A 0.685 0.685 0 0 1 153.633 7.676 A 1.374 1.374 0 0 1 153.854 7.692 Q 154.371 7.777 154.231 8.306 A 1.229 1.229 0 0 1 154.219 8.35 L 152.783 16.67 L 160.518 16.67 A 0.97 0.97 0 0 1 160.784 16.703 Q 161.083 16.789 161.163 17.094 A 0.993 0.993 0 0 1 161.192 17.344 A 0.763 0.763 0 0 1 161.158 17.575 A 0.61 0.61 0 0 1 160.972 17.856 A 0.762 0.762 0 0 1 160.618 18.026 A 1.088 1.088 0 0 1 160.4 18.047 L 152.549 18.047 L 149.238 36.592 Q 149.071 37.93 149.063 38.313 A 1.732 1.732 0 0 0 149.063 38.35 A 5.491 5.491 0 0 0 149.218 39.72 Q 149.78 41.895 152.373 41.895 A 5.286 5.286 0 0 0 154.16 41.599 A 4.819 4.819 0 0 0 155.186 41.089 A 6.736 6.736 0 0 0 156.117 40.342 Q 156.9 39.602 157.705 38.467 A 0.774 0.774 0 0 1 157.766 38.319 Q 157.844 38.171 157.998 37.998 A 1.002 1.002 0 0 1 158.147 37.859 Q 158.315 37.734 158.496 37.734 A 0.718 0.718 0 0 1 158.708 37.763 Q 159.024 37.86 159.024 38.291 A 0.795 0.795 0 0 1 158.975 38.54 Q 158.848 38.916 158.386 39.544 A 11.563 11.563 0 0 1 158.203 39.785 A 12.138 12.138 0 0 1 155.817 42.304 A 8.917 8.917 0 0 1 150.205 44.209 A 12.305 12.305 0 0 1 148.188 44.054 Q 146.147 43.715 144.888 42.627 A 5.1 5.1 0 0 1 143.259 39.873 A 7.927 7.927 0 0 1 143.057 38.027 A 6.991 6.991 0 0 1 143.176 36.767 A 8.508 8.508 0 0 1 143.32 36.123 Z M 163.711 36.123 L 166.875 18.047 L 163.945 18.047 A 0.927 0.927 0 0 1 163.675 18.011 Q 163.272 17.888 163.272 17.344 A 0.636 0.636 0 0 1 163.33 17.069 A 0.633 0.633 0 0 1 163.491 16.86 A 0.895 0.895 0 0 1 163.656 16.745 A 0.609 0.609 0 0 1 163.945 16.67 L 164.531 16.67 A 8.043 8.043 0 0 0 169.93 14.608 A 10.276 10.276 0 0 0 170.083 14.473 A 9.522 9.522 0 0 0 172.652 10.612 A 12.995 12.995 0 0 0 173.233 8.467 Q 173.322 8.065 173.524 7.868 A 0.685 0.685 0 0 1 174.024 7.676 A 1.374 1.374 0 0 1 174.245 7.692 Q 174.762 7.777 174.622 8.306 A 1.229 1.229 0 0 1 174.609 8.35 L 173.174 16.67 L 180.908 16.67 A 0.97 0.97 0 0 1 181.175 16.703 Q 181.474 16.789 181.553 17.094 A 0.993 0.993 0 0 1 181.582 17.344 A 0.763 0.763 0 0 1 181.549 17.575 A 0.61 0.61 0 0 1 181.362 17.856 A 0.762 0.762 0 0 1 181.009 18.026 A 1.088 1.088 0 0 1 180.791 18.047 L 172.94 18.047 L 169.629 36.592 Q 169.462 37.93 169.454 38.313 A 1.732 1.732 0 0 0 169.453 38.35 A 5.491 5.491 0 0 0 169.609 39.72 Q 170.171 41.895 172.764 41.895 A 5.286 5.286 0 0 0 174.551 41.599 A 4.819 4.819 0 0 0 175.576 41.089 A 6.736 6.736 0 0 0 176.507 40.342 Q 177.29 39.602 178.096 38.467 A 0.774 0.774 0 0 1 178.157 38.319 Q 178.235 38.171 178.389 37.998 A 1.002 1.002 0 0 1 178.538 37.859 Q 178.706 37.734 178.887 37.734 A 0.718 0.718 0 0 1 179.099 37.763 Q 179.414 37.86 179.414 38.291 A 0.795 0.795 0 0 1 179.366 38.54 Q 179.239 38.916 178.777 39.544 A 11.563 11.563 0 0 1 178.594 39.785 A 12.138 12.138 0 0 1 176.208 42.304 A 8.917 8.917 0 0 1 170.596 44.209 A 12.305 12.305 0 0 1 168.578 44.054 Q 166.537 43.715 165.278 42.627 A 5.1 5.1 0 0 1 163.649 39.873 A 7.927 7.927 0 0 1 163.447 38.027 A 6.991 6.991 0 0 1 163.566 36.767 A 8.508 8.508 0 0 1 163.711 36.123 Z M 34.834 37.91 L 40.957 3.047 A 1.73 1.73 0 0 0 40.993 2.803 Q 40.997 2.748 40.997 2.695 A 1.285 1.285 0 0 0 40.708 1.875 A 1.286 1.286 0 0 0 39.848 1.395 A 1.897 1.897 0 0 0 39.58 1.377 L 38.32 1.377 A 0.827 0.827 0 0 1 38.069 1.34 A 0.674 0.674 0 0 1 37.793 1.172 A 0.677 0.677 0 0 1 37.588 0.683 A 0.832 0.832 0 0 1 37.588 0.674 A 0.684 0.684 0 0 1 37.633 0.422 A 0.625 0.625 0 0 1 37.793 0.19 A 0.703 0.703 0 0 1 38.176 0.01 A 0.966 0.966 0 0 1 38.32 0 L 47.549 0 L 40.459 39.961 A 0.707 0.707 0 0 0 40.435 40.064 Q 40.4 40.267 40.4 40.693 A 1.568 1.568 0 0 0 40.45 41.104 Q 40.578 41.575 41.04 41.701 A 1.462 1.462 0 0 0 41.426 41.748 A 2.088 2.088 0 0 0 42.45 41.463 Q 43.09 41.106 43.73 40.304 A 7.698 7.698 0 0 0 43.77 40.254 A 7.663 7.663 0 0 0 44.773 38.533 Q 45.112 37.741 45.34 36.8 A 13.66 13.66 0 0 0 45.44 36.357 A 1.32 1.32 0 0 1 45.553 36.054 Q 45.76 35.667 46.201 35.655 A 1.05 1.05 0 0 1 46.231 35.654 A 0.691 0.691 0 0 1 46.483 35.697 Q 46.785 35.815 46.813 36.26 A 1.513 1.513 0 0 1 46.817 36.357 Q 46.846 37.266 46.304 38.584 A 12.914 12.914 0 0 1 45.391 40.376 A 15.567 15.567 0 0 1 44.839 41.221 A 7.67 7.67 0 0 1 42.587 43.335 A 8.816 8.816 0 0 1 42.451 43.418 Q 41.12 44.217 39.667 44.217 A 5.356 5.356 0 0 1 39.375 44.209 A 6.784 6.784 0 0 1 37.994 44.077 Q 37.16 43.904 36.525 43.502 A 3.67 3.67 0 0 1 35.874 42.979 A 4.047 4.047 0 0 1 34.836 41.091 Q 34.675 40.458 34.66 39.707 A 7.756 7.756 0 0 1 34.658 39.551 A 7.542 7.542 0 0 1 34.714 38.657 A 9.643 9.643 0 0 1 34.834 37.91 Z M 50.477 33.507 A 22.082 22.082 0 0 0 50.479 33.779 A 17.259 17.259 0 0 0 50.485 34.263 Q 50.532 35.937 50.908 37.342 A 8.788 8.788 0 0 0 53.291 41.499 Q 55.186 43.325 58.185 43.921 A 16.249 16.249 0 0 0 61.348 44.209 A 17.978 17.978 0 0 0 62.361 44.181 A 14.696 14.696 0 0 0 69.668 41.851 A 15.266 15.266 0 0 0 75.22 35.449 A 19.115 19.115 0 0 0 76.497 31.866 A 22.549 22.549 0 0 0 77.139 26.396 A 16.768 16.768 0 0 0 77.132 25.928 Q 77.003 21.32 74.312 18.823 Q 71.484 16.201 66.27 16.201 A 16.412 16.412 0 0 0 65.952 16.198 A 14.073 14.073 0 0 0 58.052 18.53 Q 54.375 20.947 52.398 24.99 A 19.12 19.12 0 0 0 50.477 33.507 Z M 70.518 30.176 A 65.866 65.866 0 0 0 70.787 28.473 Q 71.052 26.631 71.114 25.31 A 16.219 16.219 0 0 0 71.133 24.551 A 14.285 14.285 0 0 0 70.931 22.028 Q 70.117 17.52 66.035 17.52 A 6.643 6.643 0 0 0 60.559 20.441 Q 58.595 23.037 57.463 27.941 A 43.401 43.401 0 0 0 57.012 30.176 A 39.359 39.359 0 0 0 56.625 33.025 Q 56.489 34.427 56.485 35.69 A 24.225 24.225 0 0 0 56.484 35.771 Q 56.484 42.891 61.465 42.891 Q 68.262 42.891 70.518 30.176 Z M 128.731 26.631 A 18.01 18.01 0 0 0 128.574 24.18 Q 128.255 21.858 127.28 20.303 A 5.004 5.004 0 0 0 125.827 18.767 Q 124.844 18.11 123.541 18.007 A 6.283 6.283 0 0 0 123.047 17.988 A 5.777 5.777 0 0 0 118.636 19.929 A 7.844 7.844 0 0 0 118.14 20.522 A 12.35 12.35 0 0 0 116.915 22.555 Q 115.876 24.678 115.1 27.819 A 43.329 43.329 0 0 0 114.99 28.271 A 49.695 49.695 0 0 0 114.386 31.298 Q 114.149 32.728 114.045 33.983 A 22.509 22.509 0 0 0 113.965 35.83 A 13.483 13.483 0 0 0 114.153 38.195 Q 114.893 42.327 118.542 42.42 A 6.654 6.654 0 0 0 118.711 42.422 Q 121.286 42.535 123.587 40.298 A 11.25 11.25 0 0 0 123.75 40.137 A 15.115 15.115 0 0 0 126.411 36.428 A 19.331 19.331 0 0 0 127.442 34.043 A 21.439 21.439 0 0 0 128.731 26.849 Q 128.731 26.821 128.731 26.793 A 20.546 20.546 0 0 0 128.731 26.631 Z M 204.668 26.631 A 18.01 18.01 0 0 0 204.512 24.18 Q 204.192 21.858 203.218 20.303 A 5.004 5.004 0 0 0 201.765 18.767 Q 200.781 18.11 199.478 18.007 A 6.283 6.283 0 0 0 198.984 17.988 A 5.777 5.777 0 0 0 194.574 19.929 A 7.844 7.844 0 0 0 194.077 20.522 A 12.35 12.35 0 0 0 192.852 22.555 Q 191.814 24.678 191.037 27.819 A 43.329 43.329 0 0 0 190.928 28.271 A 49.695 49.695 0 0 0 190.323 31.298 Q 190.087 32.728 189.983 33.983 A 22.509 22.509 0 0 0 189.902 35.83 A 13.483 13.483 0 0 0 190.091 38.195 Q 190.831 42.327 194.479 42.42 A 6.654 6.654 0 0 0 194.649 42.422 Q 197.223 42.535 199.525 40.298 A 11.25 11.25 0 0 0 199.688 40.137 A 15.115 15.115 0 0 0 202.348 36.428 A 19.331 19.331 0 0 0 203.379 34.043 A 21.439 21.439 0 0 0 204.669 26.849 Q 204.669 26.821 204.669 26.793 A 20.546 20.546 0 0 0 204.668 26.631 Z" vector-effect="non-scaling-stroke"/></g></svg>